<svg width="1061" height="161" viewBox="0 0 1061 161" fill="none" xmlns="http://www.w3.org/2000/svg">
<path d="M63.4124 9.63672L0.839844 40.923V150.425L63.4124 120.195V9.63672Z" fill="#127688"/>
<path d="M106.475 9.63672L43.9023 40.923V150.425L106.475 119.139V9.63672Z" fill="#20BFD4"/>
<path d="M149.448 9.63672L86.875 40.923V150.425L149.448 119.139V9.63672Z" fill="#83EDE3"/>
<path d="M183.186 129V28.7852H215.656C227.961 28.7852 235.982 29.2865 239.719 30.2891C245.461 31.793 250.269 35.0742 254.143 40.1328C258.016 45.1458 259.953 51.64 259.953 59.6152C259.953 65.7676 258.837 70.9401 256.604 75.1328C254.37 79.3255 251.522 82.6296 248.059 85.0449C244.641 87.4147 241.154 88.987 237.6 89.7617C232.769 90.7188 225.773 91.1973 216.613 91.1973H203.42V129H183.186ZM203.42 45.7383V74.1758H214.494C222.469 74.1758 227.801 73.6517 230.49 72.6035C233.179 71.5553 235.275 69.9147 236.779 67.6816C238.329 65.4486 239.104 62.8509 239.104 59.8887C239.104 56.2428 238.033 53.235 235.891 50.8652C233.749 48.4954 231.037 47.0143 227.756 46.4219C225.34 45.9661 220.487 45.7383 213.195 45.7383H203.42ZM324.211 129V118.131C321.568 122.005 318.081 125.058 313.752 127.291C309.468 129.524 304.934 130.641 300.148 130.641C295.272 130.641 290.897 129.57 287.023 127.428C283.15 125.286 280.347 122.278 278.615 118.404C276.883 114.531 276.018 109.176 276.018 102.34V56.4023H295.227V89.7617C295.227 99.9701 295.568 106.236 296.252 108.561C296.981 110.839 298.28 112.662 300.148 114.029C302.017 115.351 304.387 116.012 307.258 116.012C310.539 116.012 313.479 115.123 316.076 113.346C318.674 111.523 320.451 109.29 321.408 106.646C322.365 103.958 322.844 97.418 322.844 87.0273V56.4023H342.053V129H324.211ZM362.014 129V28.7852H381.223V129H362.014ZM394.211 108.287L413.488 105.348C414.309 109.085 415.972 111.933 418.479 113.893C420.985 115.807 424.494 116.764 429.006 116.764C433.973 116.764 437.71 115.852 440.217 114.029C441.903 112.753 442.746 111.044 442.746 108.902C442.746 107.444 442.29 106.236 441.379 105.279C440.422 104.368 438.28 103.525 434.953 102.75C419.458 99.332 409.637 96.2103 405.49 93.3848C399.748 89.4655 396.877 84.0195 396.877 77.0469C396.877 70.7578 399.361 65.4714 404.328 61.1875C409.296 56.9036 416.997 54.7617 427.434 54.7617C437.368 54.7617 444.751 56.3796 449.582 59.6152C454.413 62.8509 457.74 67.6361 459.562 73.9707L441.447 77.3203C440.673 74.4948 439.191 72.3301 437.004 70.8262C434.862 69.3223 431.786 68.5703 427.775 68.5703C422.717 68.5703 419.094 69.2767 416.906 70.6895C415.448 71.6921 414.719 72.9909 414.719 74.5859C414.719 75.9531 415.357 77.1152 416.633 78.0723C418.365 79.3483 424.335 81.1484 434.543 83.4727C444.797 85.7969 451.952 88.6452 456.008 92.0176C460.018 95.4355 462.023 100.198 462.023 106.305C462.023 112.958 459.243 118.678 453.684 123.463C448.124 128.248 439.898 130.641 429.006 130.641C419.117 130.641 411.278 128.635 405.49 124.625C399.748 120.615 395.988 115.169 394.211 108.287ZM520.949 105.895L540.09 109.107C537.629 116.126 533.732 121.48 528.4 125.172C523.114 128.818 516.483 130.641 508.508 130.641C495.884 130.641 486.542 126.516 480.48 118.268C475.695 111.66 473.303 103.32 473.303 93.248C473.303 81.2168 476.447 71.806 482.736 65.0156C489.025 58.1797 496.978 54.7617 506.594 54.7617C517.395 54.7617 525.917 58.3392 532.16 65.4941C538.404 72.6035 541.389 83.5182 541.115 98.2383H492.99C493.127 103.935 494.676 108.378 497.639 111.568C500.601 114.713 504.292 116.285 508.713 116.285C511.721 116.285 514.25 115.465 516.301 113.824C518.352 112.184 519.901 109.54 520.949 105.895ZM522.043 86.4805C521.906 80.9206 520.471 76.7051 517.736 73.834C515.002 70.9173 511.675 69.459 507.756 69.459C503.563 69.459 500.1 70.9857 497.365 74.0391C494.631 77.0924 493.286 81.2396 493.332 86.4805H522.043ZM595.939 129V28.7852H670.246V45.7383H616.174V67.9551H666.486V84.8398H616.174V112.115H672.16V129H595.939ZM755.217 129H736.008V91.9492C736.008 84.1107 735.598 79.0521 734.777 76.7734C733.957 74.4492 732.613 72.6491 730.744 71.373C728.921 70.097 726.711 69.459 724.113 69.459C720.786 69.459 717.801 70.3704 715.158 72.1934C712.515 74.0163 710.692 76.4316 709.689 79.4395C708.732 82.4473 708.254 88.0072 708.254 96.1191V129H689.045V56.4023H706.887V67.0664C713.221 58.8633 721.197 54.7617 730.812 54.7617C735.051 54.7617 738.924 55.5365 742.434 57.0859C745.943 58.5898 748.586 60.5267 750.363 62.8965C752.186 65.2663 753.439 67.9551 754.123 70.9629C754.852 73.9707 755.217 78.2773 755.217 83.8828V129ZM816.809 105.895L835.949 109.107C833.488 116.126 829.592 121.48 824.26 125.172C818.973 128.818 812.342 130.641 804.367 130.641C791.743 130.641 782.401 126.516 776.34 118.268C771.555 111.66 769.162 103.32 769.162 93.248C769.162 81.2168 772.307 71.806 778.596 65.0156C784.885 58.1797 792.837 54.7617 802.453 54.7617C813.254 54.7617 821.776 58.3392 828.02 65.4941C834.263 72.6035 837.248 83.5182 836.975 98.2383H788.85C788.986 103.935 790.536 108.378 793.498 111.568C796.46 114.713 800.152 116.285 804.572 116.285C807.58 116.285 810.109 115.465 812.16 113.824C814.211 112.184 815.76 109.54 816.809 105.895ZM817.902 86.4805C817.766 80.9206 816.33 76.7051 813.596 73.834C810.861 70.9173 807.535 69.459 803.615 69.459C799.423 69.459 795.959 70.9857 793.225 74.0391C790.49 77.0924 789.146 81.2396 789.191 86.4805H817.902ZM871.086 129H851.877V56.4023H869.719V66.7246C872.772 61.8483 875.507 58.6354 877.922 57.0859C880.383 55.5365 883.163 54.7617 886.262 54.7617C890.637 54.7617 894.852 55.9694 898.908 58.3848L892.961 75.1328C889.725 73.0365 886.717 71.9883 883.938 71.9883C881.249 71.9883 878.97 72.7402 877.102 74.2441C875.233 75.7025 873.752 78.3685 872.658 82.2422C871.61 86.1159 871.086 94.2279 871.086 106.578V129ZM905.471 133.785L927.414 136.451C927.779 139.003 928.622 140.758 929.943 141.715C931.766 143.082 934.637 143.766 938.557 143.766C943.57 143.766 947.329 143.014 949.836 141.51C951.522 140.507 952.798 138.889 953.664 136.656C954.257 135.061 954.553 132.122 954.553 127.838V117.242C948.811 125.081 941.564 129 932.814 129C923.062 129 915.337 124.876 909.641 116.627C905.174 110.11 902.941 101.998 902.941 92.291C902.941 80.123 905.858 70.8262 911.691 64.4004C917.57 57.9746 924.862 54.7617 933.566 54.7617C942.544 54.7617 949.95 58.7038 955.783 66.5879V56.4023H973.762V121.549C973.762 130.117 973.055 136.52 971.643 140.758C970.23 144.996 968.247 148.323 965.695 150.738C963.143 153.154 959.725 155.045 955.441 156.412C951.203 157.779 945.826 158.463 939.309 158.463C927.004 158.463 918.277 156.344 913.127 152.105C907.977 147.913 905.402 142.581 905.402 136.109C905.402 135.471 905.425 134.697 905.471 133.785ZM922.629 91.1973C922.629 98.8991 924.11 104.55 927.072 108.15C930.08 111.705 933.771 113.482 938.146 113.482C942.84 113.482 946.805 111.66 950.041 108.014C953.277 104.322 954.895 98.8763 954.895 91.6758C954.895 84.1562 953.345 78.5736 950.246 74.9277C947.147 71.2819 943.228 69.459 938.488 69.459C933.885 69.459 930.08 71.2591 927.072 74.8594C924.11 78.4141 922.629 83.86 922.629 91.1973ZM983.742 56.4023H1004.18L1021.54 107.945L1038.5 56.4023H1058.39L1032.76 126.266L1028.18 138.912C1026.49 143.15 1024.87 146.386 1023.32 148.619C1021.82 150.852 1020.06 152.652 1018.06 154.02C1016.1 155.432 1013.66 156.526 1010.74 157.301C1007.87 158.076 1004.61 158.463 1000.97 158.463C997.277 158.463 993.654 158.076 990.1 157.301L988.391 142.262C991.398 142.854 994.11 143.15 996.525 143.15C1000.99 143.15 1004.3 141.829 1006.44 139.186C1008.58 136.588 1010.22 133.261 1011.36 129.205L983.742 56.4023Z" fill="black"/>
</svg>
